<?xml version="1.0" standalone="no"?>
<!DOCTYPE svg PUBLIC "-//W3C//DTD SVG 20010904//EN"
 "http://www.w3.org/TR/2001/REC-SVG-20010904/DTD/svg10.dtd">
<svg version="1.0" xmlns="http://www.w3.org/2000/svg"
 width="79.000000pt" height="79.000000pt" viewBox="0 0 79.000000 79.000000"
 preserveAspectRatio="xMidYMid meet">
<metadata>
Created by potrace 1.11, written by Peter Selinger 2001-2013
</metadata>
<g transform="translate(0.000000,79.000000) scale(0.100000,-0.100000)"
fill="#000000" stroke="none">
<path d="M387 734 c-2 -2 -23 -6 -48 -9 -172 -22 -247 -80 -237 -185 6 -59 21
-80 57 -80 36 0 53 18 40 42 -6 10 -9 35 -7 55 2 30 9 39 40 55 20 10 55 20
78 22 l42 3 -6 -56 c-4 -31 -8 -76 -10 -101 -2 -25 -4 -48 -5 -52 0 -5 -14 -8
-31 -8 -17 0 -39 -9 -51 -21 -18 -18 -19 -23 -6 -42 9 -14 24 -22 41 -21 17 0
26 -5 27 -15 1 -9 2 -23 3 -31 2 -28 -25 -98 -49 -124 -19 -20 -34 -26 -67
-26 -44 0 -70 13 -113 56 -27 27 -42 24 -55 -10 -12 -34 20 -80 78 -110 67
-34 178 -22 233 26 40 37 68 106 78 195 3 29 30 40 93 38 68 -3 102 10 113 45
12 38 -18 53 -106 53 l-80 0 6 81 c10 139 -6 126 153 123 75 -2 145 0 155 5
18 9 24 62 8 72 -19 12 -363 30 -374 20z"/>
</g>
</svg>
